<?xml version="1.0" encoding="UTF-8" standalone="no"?>
<!-- Created with Inkscape (http://www.inkscape.org/) -->

<svg
   xmlns:dc="http://purl.org/dc/elements/1.1/"
   xmlns:cc="http://creativecommons.org/ns#"
   xmlns:rdf="http://www.w3.org/1999/02/22-rdf-syntax-ns#"
   xmlns:svg="http://www.w3.org/2000/svg"
   xmlns="http://www.w3.org/2000/svg"
   xmlns:sodipodi="http://sodipodi.sourceforge.net/DTD/sodipodi-0.dtd"
   xmlns:inkscape="http://www.inkscape.org/namespaces/inkscape"
   width="43.391666mm"
   height="83.07917mm"
   viewBox="0 0 43.391666 83.07917"
   version="1.1"
   id="svg8"
   inkscape:version="0.92.3 (2405546, 2018-03-11)"
   sodipodi:docname="capa.svg"
   inkscape:export-filename="/home/celso/capa.png"
   inkscape:export-xdpi="96"
   inkscape:export-ydpi="96">
  <defs
     id="defs2" />
  <sodipodi:namedview
     id="base"
     pagecolor="#ffffff"
     bordercolor="#666666"
     borderopacity="1.0"
     inkscape:pageopacity="0.0"
     inkscape:pageshadow="2"
     inkscape:zoom="1.098943"
     inkscape:cx="-225.8594"
     inkscape:cy="155.61112"
     inkscape:document-units="mm"
     inkscape:current-layer="layer1"
     showgrid="false"
     inkscape:window-width="1366"
     inkscape:window-height="703"
     inkscape:window-x="0"
     inkscape:window-y="0"
     inkscape:window-maximized="1"
     showguides="true"
     inkscape:guide-bbox="true"
     fit-margin-top="0"
     fit-margin-left="0"
     fit-margin-right="0"
     fit-margin-bottom="0" />
  <metadata
     id="metadata5">
    <rdf:RDF>
      <cc:Work
         rdf:about="">
        <dc:format>image/svg+xml</dc:format>
        <dc:type
           rdf:resource="http://purl.org/dc/dcmitype/StillImage" />
        <dc:title />
      </cc:Work>
    </rdf:RDF>
  </metadata>
  <g
     inkscape:label="Camada 1"
     inkscape:groupmode="layer"
     id="layer1"
     transform="translate(-55.987022,-78.887802)">
    <g
       id="g1025">
      <rect
         style="opacity:1;fill:#414042;fill-opacity:1;fill-rule:nonzero;stroke:none;stroke-width:0.29875419;stroke-linecap:round;stroke-linejoin:round;stroke-miterlimit:4;stroke-dasharray:none;stroke-dashoffset:0;stroke-opacity:1;paint-order:normal"
         id="rect966"
         width="43.391666"
         height="83.07917"
         x="55.987022"
         y="78.887802"
         ry="0" />
      <g
         id="g992">
        <text
           xml:space="preserve"
           style="font-style:normal;font-variant:normal;font-weight:bold;font-stretch:normal;font-size:14.11111069px;line-height:10.00000015%;font-family:Arial;-inkscape-font-specification:'Arial Bold';font-variant-ligatures:normal;font-variant-caps:normal;font-variant-numeric:normal;font-feature-settings:normal;text-align:center;letter-spacing:0px;word-spacing:0px;writing-mode:lr-tb;text-anchor:middle;fill:#b3b3b3;fill-opacity:1;stroke:none;stroke-width:0.26458332"
           x="77.668724"
           y="159.56039"
           id="text909"><tspan
             sodipodi:role="line"
             id="tspan907"
             x="77.668724"
             y="159.56039"
             style="font-style:normal;font-variant:normal;font-weight:normal;font-stretch:normal;font-size:2.82222223px;font-family:Nunito;-inkscape-font-specification:Nunito;fill:#ececec;stroke-width:0.26458332">Enhanced Front-end</tspan></text>
        <g
           id="g995"
           transform="matrix(1.1262093,0,0,1.1262093,-9.2170821,-4.7839363)">
          <g
             style="fill:#ffffff"
             id="g937">
            <g
               style="fill:#ffffff"
               transform="matrix(0.07837728,0,0,-0.07837728,72.888794,141.97626)"
               id="g6915">
              <path
                 id="path6917"
                 style="fill:#ffffff;fill-opacity:1;fill-rule:nonzero;stroke:none"
                 d="m 0,0 -0.097,24.545 c 0,0 -8.003,0.297 -10.69,0.297 -3.463,0 -6.527,-0.129 -9.074,-0.705 -2.544,-0.595 -3.872,-1.263 -5.108,-2.024 -1.73,-1.058 -2.946,-2.451 -3.731,-4.029 -0.789,-1.615 -1.184,-3.454 -1.184,-5.552 0,-3.565 0.831,-6.665 3.403,-9.041 2.989,-2.768 6.944,-3.269 6.944,-3.269 C -15.076,-0.892 0,0 0,0 m 6.689,-9.229 c -12.978,0 -25.093,-1.058 -33.922,1.56 -6.365,1.876 -10.797,5.848 -12.928,9.785 -1.87,3.454 -2.418,6.499 -2.418,9.804 0,3.861 0.854,7.39 2.367,10.081 4.308,7.576 11.628,9.099 16.316,10.139 2.427,0.519 8.992,1.281 14.334,1.281 h 9.465 v 6.016 c 0,2.636 -0.278,4.994 -0.836,7.018 -0.566,2.042 -1.462,3.732 -2.706,5.069 -1.254,1.355 -2.869,2.376 -4.85,3.063 -1.978,0.687 -4.429,1.04 -7.334,1.04 -3.102,0 -5.887,-0.39 -8.357,-1.114 -2.468,-0.743 -4.622,-1.559 -6.484,-2.432 -1.852,-0.91 -3.411,-1.708 -4.65,-2.451 -1.249,-0.743 -2.177,-1.114 -2.79,-1.114 -0.409,0 -0.766,0.111 -1.073,0.316 -0.305,0.185 -0.566,0.501 -0.798,0.909 -0.227,0.409 -0.394,0.928 -0.497,1.56 -0.102,0.631 -0.148,1.337 -0.148,2.098 0,1.281 0.083,2.284 0.26,3.027 0.176,0.724 0.617,1.429 1.299,2.097 0.692,0.65 1.872,1.431 3.551,2.321 1.676,0.892 3.607,1.709 5.798,2.451 2.187,0.743 4.586,1.356 7.181,1.82 2.591,0.483 5.217,0.743 7.859,0.743 4.939,0 9.135,-0.576 12.593,-1.69 3.458,-1.114 6.257,-2.767 8.392,-4.939 2.136,-2.135 3.695,-4.828 4.661,-8.04 0.965,-3.193 1.452,-6.944 1.452,-11.214 V -5.312 c 0,-1.355 -0.473,-2.208 -1.118,-2.821 C 9.92,-9.526 7.975,-9.229 6.689,-9.229"
                 inkscape:connector-curvature="0" />
            </g>
            <g
               style="fill:#ffffff"
               transform="matrix(0.07837728,0,0,-0.07837728,64.169322,141.01732)"
               id="g6919">
              <path
                 id="path6921"
                 style="fill:#ffffff;fill-opacity:1;fill-rule:nonzero;stroke:none"
                 d="m 0,0 c 0,-3.435 -0.683,-6.498 -2.057,-9.191 -1.369,-2.692 -3.235,-4.938 -5.602,-6.795 -2.368,-1.82 -5.204,-3.268 -8.504,-4.271 -3.3,-1.021 -6.87,-1.541 -10.723,-1.541 -2.367,0 -4.661,0.205 -6.865,0.613 -2.205,0.427 -4.191,0.947 -5.951,1.578 -1.773,0.631 -3.263,1.263 -4.497,1.913 -1.227,0.668 -2.025,1.169 -2.401,1.559 -0.371,0.352 -0.635,0.669 -0.807,0.909 -0.163,0.279 -0.298,0.595 -0.413,0.948 -0.112,0.371 -0.196,0.817 -0.237,1.299 -0.051,0.483 -0.075,1.096 -0.075,1.839 0,0.928 0.024,1.727 0.075,2.396 0.041,0.667 0.144,1.244 0.306,1.726 0.163,0.446 0.376,0.779 0.627,1.003 0.255,0.185 0.57,0.297 0.946,0.297 0.507,0 1.291,-0.316 2.322,-1.003 1.049,-0.669 2.381,-1.411 4.01,-2.228 1.629,-0.799 3.57,-1.559 5.825,-2.228 2.243,-0.669 4.768,-1.003 7.553,-1.003 2.093,0 4.02,0.241 5.783,0.761 1.765,0.521 3.278,1.244 4.564,2.191 1.276,0.948 2.269,2.117 2.989,3.491 0.724,1.355 1.086,2.915 1.086,4.697 0,1.894 -0.502,3.565 -1.504,4.977 -0.998,1.411 -2.307,2.673 -3.931,3.751 -1.625,1.094 -3.487,2.079 -5.575,2.933 -2.09,0.854 -4.22,1.782 -6.374,2.767 -2.158,0.965 -4.279,2.042 -6.373,3.23 -2.089,1.188 -3.964,2.562 -5.612,4.178 -1.644,1.616 -2.952,3.528 -3.931,5.774 -0.98,2.265 -1.458,4.902 -1.458,7.91 0,2.971 0.603,5.682 1.81,8.114 1.198,2.451 2.873,4.531 5.009,6.239 2.139,1.727 4.646,3.044 7.524,4.01 2.883,0.928 5.993,1.43 9.34,1.43 1.949,0 3.871,-0.205 5.773,-0.557 1.913,-0.372 3.635,-0.818 5.196,-1.337 1.558,-0.502 2.9,-1.04 4.038,-1.634 1.137,-0.576 1.87,-1.04 2.2,-1.374 0.32,-0.371 0.566,-0.668 0.728,-0.929 0.159,-0.241 0.302,-0.575 0.409,-0.965 0.126,-0.408 0.205,-0.873 0.251,-1.43 0.047,-0.556 0.065,-1.206 0.065,-1.949 0,-0.891 -0.018,-1.635 -0.065,-2.247 -0.046,-0.575 -0.154,-1.077 -0.316,-1.485 -0.162,-0.39 -0.344,-0.687 -0.553,-0.873 -0.212,-0.185 -0.472,-0.278 -0.802,-0.278 -0.418,0 -1.11,0.297 -2.052,0.91 -0.956,0.594 -2.145,1.244 -3.551,1.912 -1.429,0.668 -3.087,1.318 -4.99,1.912 -1.903,0.595 -4.029,0.91 -6.405,0.91 -1.807,0 -3.458,-0.241 -4.944,-0.724 -1.49,-0.483 -2.744,-1.17 -3.759,-2.024 -1.027,-0.854 -1.811,-1.875 -2.373,-3.064 -0.552,-1.188 -0.835,-2.45 -0.835,-3.787 0,-2.006 0.51,-3.714 1.536,-5.162 1.011,-1.449 2.353,-2.692 3.997,-3.769 1.652,-1.058 3.528,-2.061 5.611,-2.953 2.095,-0.909 4.23,-1.819 6.411,-2.747 2.182,-0.947 4.313,-1.987 6.405,-3.157 2.089,-1.132 3.965,-2.506 5.617,-4.084 1.638,-1.597 2.97,-3.472 3.992,-5.644 C -0.506,5.552 0,2.972 0,0"
                 inkscape:connector-curvature="0" />
            </g>
            <g
               style="fill:#ffffff"
               transform="matrix(0.07837728,0,0,-0.07837728,68.920333,141.79727)"
               id="g6923">
              <path
                 id="path6925"
                 style="fill:#ffffff;fill-opacity:1;fill-rule:nonzero;stroke:none"
                 d="m 0,0 c 0,-1.338 -0.098,-2.396 -0.283,-3.157 -0.181,-0.78 -0.575,-1.467 -1.184,-2.079 -0.598,-0.596 -1.509,-1.263 -2.711,-2.042 -1.207,-0.762 -2.664,-1.468 -4.353,-2.118 -1.699,-0.649 -3.621,-1.188 -5.776,-1.633 -2.162,-0.447 -4.525,-0.669 -7.073,-0.669 -5.009,0 -9.585,0.835 -13.708,2.469 -4.136,1.653 -7.678,4.066 -10.62,7.241 -2.952,3.195 -5.236,7.112 -6.86,11.791 -1.629,4.642 -2.442,9.989 -2.442,16.042 0,5.979 0.826,11.345 2.479,16.079 1.642,4.717 3.955,8.746 6.921,12.033 2.975,3.304 6.535,5.811 10.69,7.519 4.158,1.727 8.736,2.581 13.748,2.581 2.187,0 4.28,-0.186 6.305,-0.557 2.013,-0.372 3.885,-0.892 5.602,-1.542 1.722,-0.649 3.258,-1.354 4.632,-2.116 1.369,-0.761 2.359,-1.448 2.962,-2.042 0.608,-0.613 1.007,-1.319 1.216,-2.136 0.209,-0.798 0.316,-1.986 0.316,-3.509 0,-0.835 -0.05,-1.559 -0.144,-2.154 -0.093,-0.612 -0.218,-1.113 -0.381,-1.504 -0.162,-0.408 -0.357,-0.686 -0.59,-0.872 -0.236,-0.167 -0.514,-0.279 -0.84,-0.279 -0.506,0 -1.207,0.372 -2.084,1.077 -0.886,0.724 -2.055,1.504 -3.513,2.34 -1.467,0.836 -3.268,1.596 -5.441,2.302 -2.153,0.687 -4.716,1.039 -7.686,1.039 -3.25,0 -6.211,-0.649 -8.88,-1.912 -2.674,-1.281 -4.945,-3.1 -6.823,-5.514 -1.875,-2.377 -3.329,-5.31 -4.35,-8.801 -1.025,-3.473 -1.527,-7.372 -1.527,-11.698 0,-4.549 0.533,-8.559 1.628,-12.032 1.087,-3.49 2.633,-6.387 4.633,-8.725 1.996,-2.303 4.373,-4.048 7.13,-5.236 2.767,-1.189 5.845,-1.783 9.233,-1.783 2.823,0 5.259,0.352 7.278,1.04 2.015,0.687 3.732,1.447 5.148,2.265 1.416,0.816 2.59,1.578 3.514,2.265 0.934,0.705 1.699,1.039 2.298,1.039 0.282,0 0.515,-0.074 0.696,-0.203 C -0.658,4.678 -0.501,4.4 -0.381,4.01 -0.265,3.62 -0.176,3.082 -0.107,2.431 -0.037,1.782 0,0.983 0,0"
                 inkscape:connector-curvature="0" />
            </g>
            <g
               style="fill:#ffffff"
               transform="matrix(0.07837728,0,0,-0.07837728,78.28634,139.67263)"
               id="g6927">
              <path
                 id="path6929"
                 style="fill:#ffffff;fill-opacity:1;fill-rule:nonzero;stroke:none"
                 d="m 0,0 c 0,3.825 -0.445,7.353 -1.393,10.621 -0.928,3.267 -2.376,6.071 -4.368,8.484 -1.986,2.396 -4.534,4.271 -7.681,5.626 -3.138,1.356 -7.227,2.025 -12.264,2.025 H -35.83 v -55.944 h 10.059 c 4.745,0 8.69,0.576 11.805,1.689 3.113,1.171 5.718,2.897 7.797,5.255 2.066,2.358 3.607,5.291 4.647,8.802 C -0.501,-9.915 0,-4.753 0,0 m 12.311,0.353 c 0,-6.537 -0.855,-13.202 -2.563,-17.956 -1.708,-4.734 -4.158,-8.689 -7.371,-11.808 -3.193,-3.119 -7.148,-5.44 -11.804,-6.944 -4.66,-1.523 -10.263,-2.265 -16.832,-2.265 h -17.537 c -0.928,0 -1.814,0.334 -2.649,1.021 -0.841,0.668 -1.268,1.765 -1.268,3.306 v 66.136 c 0,1.56 0.427,2.655 1.268,3.342 0.835,0.669 1.721,1.003 2.649,1.003 h 19.074 c 6.42,0 11.883,-0.799 16.381,-2.414 4.498,-1.597 8.268,-3.936 11.312,-7.018 3.064,-3.064 5.366,-6.833 6.944,-11.29 1.598,-4.437 2.396,-9.487 2.396,-15.113"
                 inkscape:connector-curvature="0" />
            </g>
            <g
               style="fill:#ffffff"
               transform="matrix(0.07837728,0,0,-0.07837728,83.056718,141.97626)"
               id="g6931">
              <path
                 id="path6933"
                 style="fill:#ffffff;fill-opacity:1;fill-rule:nonzero;stroke:none"
                 d="m 0,0 -0.111,24.545 c 0,0 -8.002,0.297 -10.676,0.297 -3.491,0 -6.556,-0.129 -9.08,-0.705 -2.543,-0.595 -3.881,-1.263 -5.106,-2.024 -1.745,-1.058 -2.933,-2.451 -3.75,-4.029 -0.78,-1.615 -1.171,-3.454 -1.171,-5.552 0,-3.565 0.836,-6.665 3.399,-9.041 3.007,-2.768 6.944,-3.269 6.944,-3.269 C -15.095,-0.892 0,0 0,0 m 6.685,-9.229 c -12.998,0 -25.105,-1.058 -33.923,1.56 -6.369,1.876 -10.807,5.848 -12.942,9.785 -1.857,3.454 -2.414,6.499 -2.414,9.804 0,3.861 0.855,7.39 2.377,10.081 4.309,7.576 11.623,9.099 16.303,10.139 2.432,0.519 8.985,1.281 14.351,1.281 h 9.452 v 6.016 c 0,2.636 -0.28,4.994 -0.836,7.018 -0.556,2.042 -1.467,3.732 -2.71,5.069 -1.245,1.355 -2.861,2.376 -4.846,3.063 -1.988,0.687 -4.438,1.04 -7.335,1.04 -3.082,0 -5.885,-0.39 -8.355,-1.114 -2.469,-0.743 -4.623,-1.559 -6.481,-2.432 -1.855,-0.91 -3.396,-1.708 -4.659,-2.451 -1.245,-0.743 -2.173,-1.114 -2.785,-1.114 -0.409,0 -0.761,0.111 -1.059,0.316 -0.335,0.185 -0.594,0.501 -0.817,0.909 -0.223,0.409 -0.391,0.928 -0.483,1.56 -0.111,0.631 -0.167,1.337 -0.167,2.098 0,1.281 0.092,2.284 0.278,3.027 0.186,0.724 0.595,1.429 1.281,2.097 0.706,0.65 1.876,1.431 3.564,2.321 1.673,0.892 3.622,1.709 5.794,2.451 2.192,0.743 4.569,1.356 7.186,1.82 2.581,0.483 5.198,0.743 7.854,0.743 4.921,0 9.136,-0.576 12.588,-1.69 3.454,-1.114 6.277,-2.767 8.394,-4.939 2.135,-2.135 3.694,-4.828 4.66,-8.04 0.983,-3.193 1.448,-6.944 1.448,-11.214 V -5.312 c 0,-1.355 -0.465,-2.208 -1.114,-2.821 C 9.897,-9.526 7.947,-9.229 6.685,-9.229"
                 inkscape:connector-curvature="0" />
            </g>
          </g>
          <g
             id="g943">
            <g
               transform="matrix(0.07837728,0,0,-0.07837728,87.973967,141.04059)"
               id="g6935">
              <path
                 id="path6937"
                 style="fill:#39b54a;fill-opacity:1;fill-rule:nonzero;stroke:none"
                 d="m 0,0 c 0,2.005 -0.296,3.789 -0.928,5.348 -0.631,1.559 -1.595,2.859 -2.895,3.936 -1.3,1.095 -2.915,1.913 -4.866,2.488 -1.949,0.557 -4.53,0.835 -7.724,0.835 h -13.404 v -24.545 h 15.651 c 2.506,0 4.549,0.278 6.145,0.779 1.617,0.52 2.99,1.281 4.198,2.284 1.187,1.021 2.134,2.265 2.821,3.713 C -0.315,-3.714 0,-1.987 0,0 m -4.14,33.217 c 0,1.635 -0.241,3.138 -0.742,4.512 -0.502,1.355 -1.263,2.507 -2.321,3.435 -1.058,0.947 -2.396,1.689 -4.029,2.191 -1.635,0.52 -3.843,0.78 -6.666,0.78 H -29.817 V 21.483 h 12.773 c 2.673,0 4.79,0.334 6.294,0.965 1.541,0.632 2.767,1.486 3.714,2.544 0.946,1.058 1.652,2.284 2.154,3.695 0.501,1.411 0.742,2.915 0.742,4.53 M 12.719,0.483 c 0,-2.451 -0.334,-4.679 -1.002,-6.703 -0.649,-2.024 -1.577,-3.844 -2.767,-5.459 -1.225,-1.615 -2.637,-3.026 -4.251,-4.215 -1.616,-1.17 -3.418,-2.153 -5.423,-2.951 -2.005,-0.799 -4.158,-1.393 -6.479,-1.765 -2.34,-0.371 -5.014,-0.557 -8.078,-0.557 h -22.372 c -0.929,0 -1.839,0.335 -2.673,1.021 -0.836,0.688 -1.264,1.802 -1.264,3.343 v 65.746 c 0,1.542 0.428,2.656 1.264,3.343 0.834,0.668 1.744,1.021 2.673,1.021 h 20.887 c 4.455,0 8.17,-0.409 11.141,-1.207 2.952,-0.798 5.458,-1.987 7.482,-3.602 2.005,-1.578 3.547,-3.546 4.586,-5.867 1.022,-2.34 1.542,-5.032 1.542,-8.096 0,-1.819 -0.223,-3.546 -0.669,-5.143 C 6.871,27.795 6.239,26.31 5.367,24.955 4.531,23.581 3.473,22.374 2.191,21.315 0.929,20.276 -0.519,19.403 -2.172,18.753 -0.146,18.363 1.765,17.695 3.584,16.71 5.385,15.708 6.963,14.427 8.3,12.868 9.656,11.27 10.713,9.47 11.513,7.391 12.311,5.329 12.719,3.027 12.719,0.483"
                 inkscape:connector-curvature="0" />
            </g>
            <g
               transform="matrix(0.07837728,0,0,-0.07837728,92.604662,138.44293)"
               id="g6939">
              <path
                 id="path6941"
                 style="fill:#39b54a;fill-opacity:1;fill-rule:nonzero;stroke:none"
                 d="m 0,0 c 0,1.671 -0.24,3.212 -0.742,4.66 -0.502,1.43 -1.319,2.637 -2.469,3.677 -1.135,1.02 -2.6,1.819 -4.4,2.432 -1.784,0.594 -4.179,0.873 -7.243,0.873 h -10.638 v -24.138 h 10.137 c 2.953,0 5.367,0.297 7.222,0.91 1.858,0.575 3.379,1.43 4.569,2.562 1.187,1.114 2.079,2.451 2.672,3.955 C -0.297,-3.528 0,-1.857 0,0 m 16.859,-52.992 c 0,-0.315 -0.092,-0.612 -0.279,-0.817 -0.185,-0.222 -0.537,-0.389 -1.039,-0.538 -0.501,-0.13 -1.188,-0.26 -2.08,-0.315 -0.873,-0.056 -1.986,-0.112 -3.323,-0.112 -1.263,0 -2.302,0.056 -3.101,0.112 -0.779,0.055 -1.43,0.204 -1.931,0.445 -0.501,0.186 -0.854,0.483 -1.095,0.799 -0.242,0.334 -0.428,0.761 -0.575,1.281 l -6.147,17.285 c -0.706,2.006 -1.502,3.827 -2.357,5.441 -0.855,1.616 -1.858,2.99 -2.991,4.103 -1.15,1.115 -2.487,1.987 -4.047,2.6 -1.54,0.631 -3.546,0.928 -6.034,0.928 h -7.352 v -30.914 c 0,-0.353 -0.094,-0.632 -0.279,-0.91 -0.205,-0.26 -0.521,-0.464 -1.002,-0.613 -0.484,-0.186 -1.116,-0.334 -1.859,-0.408 -0.76,-0.093 -1.745,-0.149 -2.932,-0.149 -1.132,0 -2.099,0.056 -2.897,0.149 -0.779,0.074 -1.41,0.222 -1.893,0.408 -0.465,0.149 -0.8,0.353 -1.003,0.613 -0.186,0.278 -0.279,0.557 -0.279,0.91 v 68.309 c 0,1.56 0.446,2.692 1.282,3.398 0.854,0.687 1.783,1.021 2.728,1.021 h 20.128 c 4.566,0 8.448,-0.446 11.604,-1.356 3.175,-0.89 5.848,-2.172 8.002,-3.843 2.173,-1.689 3.826,-2.692 4.976,-5.143 1.133,-2.469 1.709,-5.236 1.709,-8.337 0,-2.469 -0.352,-4.716 -1.039,-6.777 -0.688,-2.042 -1.672,-3.88 -2.934,-5.533 -1.245,-1.634 -2.785,-3.064 -4.605,-4.252 -1.8,-1.188 -3.881,-2.172 -6.201,-2.933 1.281,-0.502 2.451,-1.171 3.509,-1.95 1.094,-0.799 2.06,-1.764 2.952,-2.897 0.873,-1.151 1.727,-2.47 2.488,-4.01 0.799,-1.504 1.578,-3.232 2.32,-5.143 l 6.369,-16.636 c 0.465,-1.245 0.799,-2.154 0.965,-2.748 0.15,-0.595 0.242,-1.077 0.242,-1.468"
                 inkscape:connector-curvature="0" />
            </g>
          </g>
        </g>
      </g>
      <g
         id="g971">
        <rect
           rx="0"
           ry="4.6424689"
           y="84.933975"
           x="62.826954"
           height="29.711803"
           width="29.711803"
           id="rect864"
           style="opacity:1;fill:#39b54a;fill-opacity:1;fill-rule:nonzero;stroke:none;stroke-width:1.05941141;stroke-linecap:round;stroke-linejoin:round;stroke-miterlimit:4;stroke-dasharray:none;stroke-dashoffset:0;stroke-opacity:1;paint-order:normal" />
        <path
           id="path6921-3"
           style="fill:#ffffff;fill-opacity:1;fill-rule:nonzero;stroke:none;stroke-width:0.24141425"
           d="m 83.492697,102.8537 c 0,0.82927 -0.164892,1.5687 -0.49659,2.21883 -0.330494,0.64989 -0.780972,1.19213 -1.352402,1.64042 -0.571667,0.43937 -1.25632,0.78895 -2.052986,1.03108 -0.796668,0.24642 -1.658517,0.37201 -2.588685,0.37201 -0.571427,0 -1.125232,-0.0495 -1.657308,-0.14796 -0.53232,-0.10311 -1.01177,-0.22864 -1.436656,-0.38095 -0.428029,-0.15234 -0.787737,-0.3049 -1.085641,-0.4618 -0.296214,-0.16137 -0.488863,-0.28223 -0.579638,-0.37639 -0.08957,-0.0851 -0.153295,-0.16136 -0.194812,-0.21935 -0.03936,-0.0673 -0.07193,-0.14358 -0.09972,-0.22891 -0.02708,-0.0897 -0.04732,-0.1972 -0.05721,-0.31359 -0.0123,-0.11652 -0.01805,-0.26448 -0.01805,-0.44395 0,-0.22399 0.0058,-0.41694 0.01805,-0.57845 0.0098,-0.16109 0.03476,-0.3003 0.07387,-0.41667 0.03936,-0.10776 0.09078,-0.18817 0.151354,-0.24205 0.06156,-0.0445 0.137597,-0.0716 0.228371,-0.0716 0.12239,0 0.311667,0.0763 0.560564,0.24205 0.253259,0.16137 0.574807,0.34064 0.968072,0.53786 0.393262,0.19281 0.861849,0.37639 1.406238,0.53789 0.541492,0.16136 1.151063,0.24204 1.8234,0.24204 0.505281,0 0.970487,-0.0583 1.396099,-0.18378 0.426099,-0.12581 0.791358,-0.30034 1.101815,-0.52895 0.308043,-0.22892 0.54777,-0.51109 0.721588,-0.84278 0.174793,-0.32711 0.262175,-0.70372 0.262175,-1.13392 0,-0.45724 -0.121187,-0.86065 -0.363087,-1.20151 -0.240924,-0.34064 -0.556942,-0.64532 -0.948999,-0.90555 -0.392299,-0.2642 -0.841812,-0.50192 -1.345885,-0.70809 -0.504556,-0.20622 -1.018767,-0.430188 -1.538774,-0.667995 -0.520972,-0.233022 -1.033011,-0.492947 -1.538533,-0.779766 -0.504314,-0.286789 -0.956966,-0.61849 -1.354817,-1.008633 -0.396884,-0.390116 -0.712653,-0.851698 -0.948999,-1.393912 -0.236576,-0.546805 -0.35198,-1.183426 -0.35198,-1.909589 0,-0.717243 0.145582,-1.371724 0.436958,-1.958841 0.289213,-0.591713 0.693582,-1.093855 1.209243,-1.506179 0.516385,-0.416921 1.12161,-0.734862 1.816402,-0.968073 0.695997,-0.223995 1.446794,-0.345236 2.25481,-0.345236 0.470514,0 0.934515,0.0495 1.393685,0.134561 0.461825,0.0897 0.877538,0.197465 1.254388,0.322782 0.376122,0.121159 0.700102,0.25107 0.97483,0.394465 0.274488,0.138937 0.451443,0.251071 0.531111,0.331698 0.07727,0.08943 0.13664,0.161364 0.175749,0.224268 0.0384,0.05826 0.07291,0.138937 0.09873,0.233021 0.03042,0.09846 0.04948,0.210866 0.06061,0.345236 0.01122,0.134287 0.01559,0.291138 0.01559,0.470525 0,0.214969 -0.0044,0.394712 -0.01559,0.542455 -0.01121,0.138937 -0.03717,0.260096 -0.07628,0.358501 -0.03911,0.09408 -0.08304,0.165739 -0.133494,0.210864 -0.05117,0.04455 -0.113939,0.06705 -0.193608,0.06705 -0.100922,0 -0.267974,-0.07162 -0.495382,-0.21962 -0.230805,-0.143313 -0.517835,-0.300328 -0.857264,-0.461582 -0.344979,-0.161364 -0.745246,-0.318188 -1.204656,-0.461609 -0.459411,-0.143587 -0.972659,-0.219619 -1.546258,-0.219619 -0.436237,0 -0.834811,0.05826 -1.193551,0.174765 -0.35971,0.116509 -0.662442,0.282468 -0.907477,0.488631 -0.247925,0.206217 -0.437202,0.452666 -0.572877,0.739702 -0.133248,0.28679 -0.201567,0.591462 -0.201567,0.914218 0,0.484285 0.123129,0.896638 0.370811,1.246195 0.244069,0.349804 0.568049,0.649884 0.964935,0.9099 0.398814,0.255443 0.851707,0.497549 1.354574,0.712899 0.505762,0.219348 1.021182,0.439126 1.547707,0.663148 0.526767,0.228641 1.041219,0.479684 1.546257,0.762155 0.504317,0.273225 0.957209,0.604983 1.356026,0.985933 0.395437,0.385522 0.716999,0.838192 0.963727,1.362542 0.248883,0.52919 0.371052,1.15203 0.371052,1.86953"
           inkscape:connector-curvature="0" />
        <g
           id="g960">
          <g
             transform="matrix(0.92849383,0,0,0.92849383,22.994295,8.8610429)"
             id="g878">
            <g
               transform="matrix(0.8,0,0,0.8,11.907888,22.983135)"
               id="g876">
              <circle
                 style="opacity:1;fill:#414042;fill-opacity:1;fill-rule:nonzero;stroke:none;stroke-width:1.14099991;stroke-linecap:round;stroke-linejoin:round;stroke-miterlimit:4;stroke-dasharray:none;stroke-dashoffset:0;stroke-opacity:1;paint-order:normal"
                 id="circle870"
                 cx="69.8311"
                 cy="102.62574"
                 r="5" />
            </g>
          </g>
          <g
             transform="matrix(0.48525729,0,0,0.48525729,43.532903,52.326478)"
             id="g948">
            <path
               id="path6937-6"
               style="fill:#ffffff;fill-opacity:1;fill-rule:nonzero;stroke:none;stroke-width:0.08826922"
               d="m 85.835501,112.89374 c 0,-0.17698 -0.02613,-0.33445 -0.08191,-0.47207 -0.0557,-0.13761 -0.140789,-0.25236 -0.255539,-0.34742 -0.11475,-0.0967 -0.257305,-0.16886 -0.429518,-0.21962 -0.172037,-0.0492 -0.39986,-0.0737 -0.681792,-0.0737 h -1.18316 v 2.16657 h 1.381501 c 0.221203,0 0.401537,-0.0245 0.542414,-0.0688 0.142732,-0.0459 0.263926,-0.11307 0.370555,-0.20161 0.104775,-0.0901 0.188366,-0.19993 0.249007,-0.32774 0.06064,-0.12781 0.08845,-0.28026 0.08845,-0.45565 m -0.365435,-2.93203 c 0,-0.14433 -0.02127,-0.27699 -0.06549,-0.39828 -0.04431,-0.1196 -0.111484,-0.22129 -0.204873,-0.3032 -0.09339,-0.0836 -0.211493,-0.14909 -0.355637,-0.1934 -0.14432,-0.0459 -0.339219,-0.0688 -0.588403,-0.0688 h -1.05208 v 1.99948 h 1.127462 c 0.235944,0 0.42281,-0.0295 0.555567,-0.0852 0.136023,-0.0558 0.244241,-0.13117 0.327832,-0.22456 0.0835,-0.0934 0.14582,-0.20161 0.190132,-0.32616 0.04422,-0.12454 0.06549,-0.2573 0.06549,-0.39985 m 1.488131,2.8894 c 0,0.21635 -0.02948,0.41301 -0.08845,0.59167 -0.05729,0.17866 -0.1392,0.33931 -0.24424,0.48186 -0.10813,0.14256 -0.232767,0.2671 -0.375233,0.37205 -0.142643,0.10328 -0.301704,0.19005 -0.478684,0.26049 -0.17698,0.0705 -0.367023,0.12296 -0.571896,0.15579 -0.20655,0.0328 -0.442582,0.0492 -0.713039,0.0492 h -1.974759 c -0.082,0 -0.162327,-0.0296 -0.235944,-0.0901 -0.07379,-0.0607 -0.111572,-0.15906 -0.111572,-0.29508 v -5.80335 c 0,-0.13611 0.03778,-0.23444 0.111572,-0.29508 0.07362,-0.059 0.153942,-0.0901 0.235944,-0.0901 h 1.843679 c 0.39324,0 0.72116,0.0361 0.983408,0.10654 0.26057,0.0704 0.481773,0.17539 0.66043,0.31794 0.17698,0.13929 0.313091,0.31301 0.404802,0.51788 0.09021,0.20655 0.136112,0.44417 0.136112,0.71463 0,0.16056 -0.01969,0.313 -0.05905,0.45396 -0.03928,0.14097 -0.09507,0.27205 -0.172037,0.39166 -0.07379,0.12128 -0.167182,0.22782 -0.280343,0.3213 -0.111396,0.0917 -0.23921,0.16877 -0.385119,0.22614 0.178834,0.0344 0.347516,0.0934 0.508078,0.18034 0.158973,0.0884 0.298262,0.20151 0.416277,0.33913 0.119693,0.14105 0.212994,0.29993 0.283609,0.48345 0.07044,0.18201 0.106453,0.3852 0.106453,0.60976"
               inkscape:connector-curvature="0" />
            <path
               id="path6941-7"
               style="fill:#ffffff;fill-opacity:1;fill-rule:nonzero;stroke:none;stroke-width:0.08826922"
               d="m 91.050632,109.96823 c 0,-0.1475 -0.02119,-0.28352 -0.0655,-0.41134 -0.04431,-0.12622 -0.116427,-0.23276 -0.217937,-0.32456 -0.100185,-0.09 -0.2295,-0.16056 -0.388384,-0.21467 -0.157473,-0.0524 -0.368877,-0.0771 -0.639334,-0.0771 h -0.939008 v 2.13064 h 0.894785 c 0.260659,0 0.473741,-0.0262 0.63748,-0.0803 0.164004,-0.0507 0.298262,-0.12622 0.403302,-0.22615 0.104776,-0.0983 0.183512,-0.21634 0.235855,-0.3491 0.05252,-0.13602 0.07874,-0.28352 0.07874,-0.44744 m 1.48813,4.67757 c 0,0.0278 -0.0081,0.054 -0.02463,0.0721 -0.01633,0.0196 -0.0474,0.0343 -0.09171,0.0475 -0.04422,0.0115 -0.104863,0.023 -0.1836,0.0278 -0.07706,0.005 -0.175302,0.01 -0.293318,0.01 -0.111484,0 -0.203196,-0.005 -0.273723,-0.01 -0.06876,-0.005 -0.126225,-0.018 -0.170448,-0.0393 -0.04422,-0.0164 -0.07538,-0.0426 -0.09665,-0.0705 -0.02136,-0.0295 -0.03778,-0.0672 -0.05075,-0.11308 l -0.54259,-1.52573 c -0.06232,-0.17707 -0.132581,-0.33781 -0.208051,-0.48027 -0.07547,-0.14265 -0.164004,-0.26393 -0.264013,-0.36217 -0.10151,-0.0984 -0.219526,-0.17539 -0.357226,-0.2295 -0.135934,-0.0557 -0.313002,-0.0819 -0.532616,-0.0819 h -0.648955 v 2.72875 c 0,0.0312 -0.0083,0.0558 -0.02463,0.0803 -0.0181,0.023 -0.04599,0.041 -0.08845,0.0541 -0.04272,0.0164 -0.09851,0.0295 -0.164093,0.036 -0.06708,0.008 -0.15403,0.0131 -0.258805,0.0131 -0.09992,0 -0.185277,-0.005 -0.255716,-0.0131 -0.06876,-0.007 -0.12446,-0.0196 -0.167094,-0.036 -0.04104,-0.0131 -0.07061,-0.0312 -0.08853,-0.0541 -0.01642,-0.0245 -0.02463,-0.0492 -0.02463,-0.0803 v -6.02958 c 0,-0.1377 0.03937,-0.23762 0.113161,-0.29994 0.07538,-0.0606 0.157384,-0.0901 0.240799,-0.0901 h 1.776683 c 0.403037,0 0.745698,0.0394 1.024276,0.11969 0.280255,0.0786 0.516198,0.19173 0.70633,0.33922 0.191809,0.14909 0.337718,0.23762 0.439228,0.45397 0.100009,0.21794 0.150852,0.46218 0.150852,0.7359 0,0.21794 -0.03107,0.41628 -0.09171,0.5982 -0.06073,0.18025 -0.147586,0.34249 -0.258982,0.4884 -0.109895,0.14423 -0.245829,0.27045 -0.406479,0.37532 -0.158885,0.10486 -0.342573,0.19172 -0.547358,0.25889 0.113073,0.0443 0.216348,0.10336 0.309737,0.17213 0.09657,0.0705 0.181835,0.1557 0.260571,0.25571 0.07706,0.1016 0.152441,0.21803 0.219614,0.35396 0.07053,0.13276 0.139288,0.28529 0.204784,0.45397 l 0.562187,1.46845 c 0.04104,0.10989 0.07053,0.19013 0.08518,0.24256 0.01324,0.0525 0.02136,0.0951 0.02136,0.12958"
               inkscape:connector-curvature="0" />
          </g>
        </g>
      </g>
    </g>
  </g>
</svg>
